<?xml version="1.0" encoding="UTF-8" standalone="no"?>
<svg
   viewBox="0 0 21.51 16.04"
   version="1.1"
   id="svg8"
   sodipodi:docname="logo - Copy.svg"
   inkscape:version="1.1.1 (3bf5ae0d25, 2021-09-20)"
   xmlns:inkscape="http://www.inkscape.org/namespaces/inkscape"
   xmlns:sodipodi="http://sodipodi.sourceforge.net/DTD/sodipodi-0.dtd"
   xmlns="http://www.w3.org/2000/svg"
   xmlns:svg="http://www.w3.org/2000/svg">
  <defs
     id="defs12" />
  <sodipodi:namedview
     id="namedview10"
     pagecolor="#ffffff"
     bordercolor="#666666"
     borderopacity="1.0"
     inkscape:pageshadow="2"
     inkscape:pageopacity="0.0"
     inkscape:pagecheckerboard="0"
     showgrid="false"
     inkscape:zoom="50.623439"
     inkscape:cx="10.755887"
     inkscape:cy="7.9903699"
     inkscape:window-width="1920"
     inkscape:window-height="1001"
     inkscape:window-x="-9"
     inkscape:window-y="-9"
     inkscape:window-maximized="1"
     inkscape:current-layer="svg8" />
  <title
     id="title2">Logo Naruto</title>
  <g
     id="Capa_2"
     data-name="Capa 2">
    <g
       id="Capa_1-2"
       data-name="Capa 1">
      <path
         d="M21.4.29A.7.7,0,0,0,20.63,0a.46.46,0,0,0-.22.13l-.36.3L17.37,2.72l0,0,0,0c-.29-.21-.62-.45-1-.67A8.7,8.7,0,0,0,13.67.94a9.39,9.39,0,0,0-6.45.61A7.25,7.25,0,0,0,4.06,4.39a6.73,6.73,0,0,0-.8,1.89c0,.11,0,.22-.07.33A3.23,3.23,0,0,1,3,7.24c-.43,1.23-.87,2.45-1.31,3.67L.05,15.52c0,.11-.08.22,0,.31s.18.1.3.1l5.5.06H7.39l3.11,0h.41a6.25,6.25,0,0,0,1.29-.11,6.33,6.33,0,0,0,4.2-3,4.91,4.91,0,0,0,.7-2.51,6,6,0,0,0-1.19-3.77A5.27,5.27,0,0,0,12,4.36a4.73,4.73,0,0,0-3.22.74A3.87,3.87,0,0,0,7.14,7.7a4.19,4.19,0,0,0,.72,3.14,3.11,3.11,0,0,0,2.66,1.5h.09A2.41,2.41,0,0,0,13,10.07a2.27,2.27,0,0,0-.74-1.85A.69.69,0,0,0,11.82,8a.72.72,0,0,0-.48.24.6.6,0,0,0-.17.44.67.67,0,0,0,.25.45.38.38,0,0,1,.09.09,1.1,1.1,0,0,1,0,1.36,1.26,1.26,0,0,1-1.64.26A2.73,2.73,0,0,1,8.41,8.13,2.49,2.49,0,0,1,9.84,6a3.8,3.8,0,0,1,4.44.7,5,5,0,0,1,1,1.42,4.31,4.31,0,0,1,.39,3.15,4.52,4.52,0,0,1-2.93,3.11,5.27,5.27,0,0,1-2.43.32,6.09,6.09,0,0,1-3.1-1.12,7.1,7.1,0,0,1-2.54-3.33A6,6,0,0,1,4.3,8,5.7,5.7,0,0,1,5.4,4.74,6.68,6.68,0,0,1,9.09,2.2a8.18,8.18,0,0,1,5.07.24,8.86,8.86,0,0,1,2.93,1.81c.23.22.33.19.55,0l1.93-1.63,1.75-1.48A.5.5,0,0,0,21.44,1,.72.72,0,0,0,21.4.29Zm-18.06,10a8.57,8.57,0,0,0,3.2,4.41l-4.7,0H1.79Z"
         style="fill:#ff7c0b"
         id="path4" />
    </g>
  </g>
  <path
     style="fill:#ffffff;fill-opacity:0.983806;fill-rule:evenodd;stroke-width:0.0197537"
     d="M 2.5877341,15.947308 C -0.00545215,15.917041 0.14505231,15.925768 0.05348322,15.800352 0.01718554,15.750638 0.01689585,15.742338 0.04686031,15.610594 0.07401705,15.491195 1.2714364,12.102995 2.0836876,9.8472173 2.2323458,9.4343651 2.500213,8.6832308 2.6789484,8.17803 2.8576836,7.6728293 3.025481,7.2047257 3.0518312,7.1377998 3.0781815,7.0708739 3.1233503,6.9242027 3.1522063,6.8118638 3.1810621,6.699525 3.2136898,6.5904759 3.2247122,6.5695324 3.2357346,6.5485891 3.2520004,6.4685867 3.2608583,6.3917491 3.2961364,6.0857332 3.490885,5.5249319 3.7415426,5.0075619 4.0922835,4.283615 4.5276486,3.659367 5.0764977,3.0934376 5.7145381,2.4355416 6.3975137,1.9519217 7.2660851,1.5429758 9.1012299,0.67894199 11.123986,0.42866035 13.0967,0.82153655 c 1.576122,0.31389275 2.725364,0.80948385 4.031152,1.73836625 0.145395,0.1034279 0.245635,0.1623745 0.260643,0.153273 0.01341,-0.00813 0.633295,-0.5346365 1.377516,-1.1700053 0.74422,-0.63536891 1.435764,-1.22540905 1.536762,-1.31120032 0.233675,-0.19848956 0.322914,-0.23986615 0.517622,-0.23999699 0.336074,-2.2585e-4 0.60888,0.23486644 0.671174,0.57838556 0.02632,0.1451542 0.002,0.30248348 -0.06577,0.42480502 C 21.395398,1.0500701 20.84952,1.5230606 19.499396,2.664351 18.463207,3.5402649 17.574948,4.2858112 17.525488,4.3211209 17.420967,4.3957374 17.326,4.4047144 17.2351,4.3485709 17.202506,4.3284399 17.10917,4.2517454 17.027686,4.1781387 15.263469,2.584476 12.966126,1.7600449 10.726257,1.9167896 8.4889597,2.0733542 6.6820017,3.0113549 5.4497987,4.6558242 4.4919268,5.9341781 4.1057357,7.5287126 4.3666518,9.128002 c 0.2345402,1.437618 1.0447578,2.903331 2.1619069,3.910969 1.1240011,1.013818 2.2764341,1.527007 3.7421263,1.666405 0.891051,0.08474 1.630914,-0.0097 2.475842,-0.315976 0.700167,-0.253819 1.216126,-0.568063 1.700848,-1.035902 0.387992,-0.374477 0.661747,-0.749537 0.908344,-1.244483 0.322325,-0.646939 0.451507,-1.190047 0.453409,-1.906231 0.002,-0.755055 -0.136873,-1.3230541 -0.500622,-2.0474911 C 15.112187,7.764307 15.080902,7.7090676 14.912921,7.4568222 14.097585,6.2324832 12.926821,5.5715799 11.571739,5.5707042 10.987829,5.5703269 10.435429,5.6999419 9.8867247,5.9660756 9.5574582,6.1257769 9.3662379,6.2588103 9.1351391,6.4889595 8.7247426,6.8976693 8.4794078,7.4056433 8.4147771,7.9804931 c -0.027504,0.2446337 -0.027395,0.6659211 2.173e-4,0.8400439 0.1379882,0.8701258 0.6332169,1.572573 1.4182736,2.01172 0.24282,0.135829 0.419439,0.191612 0.646067,0.20405 0.351662,0.0193 0.697195,-0.109063 0.939297,-0.348947 0.158515,-0.157063 0.243783,-0.302868 0.295598,-0.505462 0.102622,-0.4012473 -0.0015,-0.7698307 -0.304769,-1.0790805 -0.286896,-0.2925339 -0.306055,-0.5776212 -0.0569,-0.8467361 0.137327,-0.1483293 0.268587,-0.2181849 0.435086,-0.2315498 0.184712,-0.014827 0.321264,0.058597 0.551141,0.2963473 0.20837,0.2155077 0.313422,0.3644667 0.432537,0.6133186 0.214327,0.4477677 0.27476,0.9398291 0.177717,1.4470275 -0.187817,0.98163 -0.984211,1.753852 -1.976709,1.916709 -0.267333,0.04387 -0.785705,0.02892 -1.0658536,-0.03074 C 9.3513689,12.148991 8.8582485,11.898277 8.4342983,11.518705 8.2382905,11.343214 8.0541325,11.116914 7.8338023,10.780792 7.3041461,9.9727809 7.0659564,9.1591977 7.097826,8.2669217 7.1324845,7.296565 7.4551933,6.4572366 8.0640789,5.7538097 8.691169,5.0293516 9.643308,4.5389748 10.746009,4.3725443 c 0.157849,-0.023824 0.347724,-0.034291 0.622242,-0.034303 1.360537,-5.93e-5 2.52942,0.3937397 3.526003,1.1879167 0.561016,0.4470738 1.127249,1.1573181 1.525004,1.9128614 0.289878,0.5506297 0.506913,1.2216466 0.609598,1.8847254 0.05341,0.3449086 0.07433,1.1297272 0.03926,1.4727882 -0.110377,1.079638 -0.529728,2.035649 -1.290569,2.942162 -0.552885,0.658741 -1.266572,1.218251 -2.038854,1.598402 -0.725415,0.357082 -1.413057,0.551575 -2.202537,0.622966 -0.323931,0.02929 -6.0446122,0.02114 -8.9484238,-0.01276 z M 6.5384733,14.70056 c 0,-0.0088 -0.060002,-0.05987 -0.1333375,-0.113562 C 6.1704325,14.41517 5.8048522,14.102292 5.5530675,13.857764 4.5868901,12.919435 3.8652924,11.780834 3.4151127,10.484311 c -0.036774,-0.105909 -0.071393,-0.192578 -0.076932,-0.192599 -0.00554,-1.9e-5 -0.3558528,0.984438 -0.778475,2.187685 -0.4226224,1.203247 -0.7723859,2.198834 -0.7772521,2.212414 -0.00705,0.01967 0.4760894,0.02469 2.373586,0.02469 1.3103387,0 2.3824338,-0.0072 2.3824338,-0.01594 z"
     id="path921" />
</svg>
