<svg xmlns="http://www.w3.org/2000/svg" viewBox="0 0 21.51 16.04"><title>Logo Naruto</title><g id="Capa_2" data-name="Capa 2"><g id="Capa_1-2" data-name="Capa 1"><path d="M21.4.29A.7.7,0,0,0,20.63,0a.46.46,0,0,0-.22.13l-.36.3L17.37,2.72l0,0,0,0c-.29-.21-.62-.45-1-.67A8.7,8.7,0,0,0,13.67.94a9.39,9.39,0,0,0-6.45.61A7.25,7.25,0,0,0,4.06,4.39a6.73,6.73,0,0,0-.8,1.89c0,.11,0,.22-.07.33A3.23,3.23,0,0,1,3,7.24c-.43,1.23-.87,2.45-1.31,3.67L.05,15.52c0,.11-.08.22,0,.31s.18.1.3.1l5.5.06H7.39l3.11,0h.41a6.25,6.25,0,0,0,1.29-.11,6.33,6.33,0,0,0,4.2-3,4.91,4.91,0,0,0,.7-2.51,6,6,0,0,0-1.19-3.77A5.27,5.27,0,0,0,12,4.36a4.73,4.73,0,0,0-3.22.74A3.87,3.87,0,0,0,7.14,7.7a4.19,4.19,0,0,0,.72,3.14,3.11,3.11,0,0,0,2.66,1.5h.09A2.41,2.41,0,0,0,13,10.07a2.27,2.27,0,0,0-.74-1.85A.69.69,0,0,0,11.82,8a.72.72,0,0,0-.48.24.6.6,0,0,0-.17.44.67.67,0,0,0,.25.45.38.38,0,0,1,.09.09,1.1,1.1,0,0,1,0,1.36,1.26,1.26,0,0,1-1.64.26A2.73,2.73,0,0,1,8.41,8.13,2.49,2.49,0,0,1,9.84,6a3.8,3.8,0,0,1,4.44.7,5,5,0,0,1,1,1.42,4.31,4.31,0,0,1,.39,3.15,4.52,4.52,0,0,1-2.93,3.11,5.27,5.27,0,0,1-2.43.32,6.09,6.09,0,0,1-3.1-1.12,7.1,7.1,0,0,1-2.54-3.33A6,6,0,0,1,4.3,8,5.7,5.7,0,0,1,5.4,4.74,6.68,6.68,0,0,1,9.09,2.2a8.18,8.18,0,0,1,5.07.24,8.86,8.86,0,0,1,2.93,1.81c.23.22.33.19.55,0l1.93-1.63,1.75-1.48A.5.5,0,0,0,21.44,1,.72.72,0,0,0,21.4.29Zm-18.06,10a8.57,8.57,0,0,0,3.2,4.41l-4.7,0H1.79Z" style="fill:#ff7c0b"/></g></g></svg>